<?xml version="1.0" encoding="UTF-8" standalone="no"?>
<!DOCTYPE svg PUBLIC "-//W3C//DTD SVG 1.1//EN" "http://www.w3.org/Graphics/SVG/1.1/DTD/svg11.dtd">
<svg width="100%" height="100%" viewBox="0 0 512 512" version="1.1" xmlns="http://www.w3.org/2000/svg" xmlns:xlink="http://www.w3.org/1999/xlink" xml:space="preserve" xmlns:serif="http://www.serif.com/" style="fill-rule:evenodd;clip-rule:evenodd;stroke-linejoin:round;stroke-miterlimit:2;">
    <g transform="matrix(1,0,0,1,-562.107,-3.37446)">
        <g id="Bone" transform="matrix(1,0,0,1,562.107,3.37446)">
            <rect x="0" y="0" width="512" height="512" style="fill:none;"/>
            <g transform="matrix(1.14309,0,0,1.14309,-684.336,-49.8098)">
                <path d="M731.645,312.811C731.456,325.766 720.728,345.036 709.138,352.063C689.604,363.906 651.857,370.863 634.337,339.057C626.809,325.39 634.715,310.393 642.193,297.808C641.153,293.907 636.294,292.287 633.528,289.347C631.345,287.027 629.002,284.777 627.362,282.047C619.561,269.056 621.465,250.219 627.362,236.755C632.508,225.007 643.386,212.938 656.071,211.27C672.236,209.144 707.09,224.848 722.32,244.457L727.675,243.5C762.185,237.334 907.168,211.524 910.639,212.498C911.977,209.698 913.319,206.894 914.86,204.2C921.725,192.207 929.61,179.984 940.84,171.321C961.592,155.313 988.635,165.375 1003.49,186.89C1012.14,199.409 1013.53,208.937 1003.49,219.715C1002.77,220.493 992.495,227.803 992.888,230.068C992.908,230.184 1004.76,236.592 1004.99,236.755C1014.76,243.614 1019.15,253.071 1019.04,264.982C1018.77,291.939 992.95,305.236 968.368,299.516C952.912,295.92 941.27,283.915 931.409,272.214L930.94,271.657C928.337,272.354 784.457,302.059 784.457,302.059C775.926,303.79 762.723,306.478 751.653,308.734L731.645,312.811Z" style="fill:white;"/>
                <path d="M908.892,209.82C910.026,207.461 911.188,205.113 912.488,202.842C919.528,190.543 927.654,178.04 939.17,169.156C961.192,152.168 989.975,162.504 1005.74,185.336C1011.42,193.552 1014.05,200.652 1013.02,207.514C1012.33,212.169 1009.96,216.781 1005.49,221.579C1005.09,222.014 1001.82,224.44 998.94,226.933C998.208,227.567 997.386,228.409 996.733,229.111C1000.28,231.074 1006.39,234.4 1006.56,234.518C1017.12,241.93 1021.9,252.136 1021.77,265.009C1021.49,293.837 994.036,308.296 967.748,302.179C952.025,298.52 940.022,286.59 929.915,274.681C913.279,278.25 785.009,304.736 785.001,304.738C776.47,306.47 763.268,309.157 752.199,311.412L734.254,315.069C732.982,328.674 722.178,347.354 710.555,354.401C690.01,366.857 650.37,373.829 631.943,340.376C627.81,332.873 627.842,325.01 630.005,317.289C631.917,310.467 635.519,303.759 639.15,297.584C638.622,296.723 637.759,296.069 636.874,295.409C635.056,294.053 633.025,292.801 631.537,291.22C629.221,288.759 626.759,286.351 625.019,283.454C616.786,269.745 618.635,249.867 624.858,235.658C630.363,223.091 642.145,210.344 655.715,208.56C662.516,207.665 672.482,209.675 682.996,213.845C697.871,219.745 713.876,229.906 723.436,241.481L727.194,240.809C754.811,235.874 853.155,218.364 893.165,212.056C900.783,210.855 906.315,210.059 908.892,209.82ZM910.271,215.207C909.887,215.252 902.567,216.109 894.016,217.457C854.033,223.761 755.754,241.26 728.156,246.191L722.801,247.149C721.801,247.327 720.784,246.937 720.161,246.134C711.29,234.713 695.533,224.699 680.98,218.927C671.504,215.169 662.558,213.174 656.428,213.981C644.627,215.532 634.654,226.923 629.867,237.852C624.295,250.572 622.336,268.367 629.706,280.639C631.246,283.203 633.469,285.295 635.519,287.473C637.109,289.164 639.441,290.375 641.252,291.9C642.953,293.333 644.273,294.996 644.835,297.104C645.024,297.815 644.919,298.572 644.544,299.205C640.924,305.296 637.177,311.959 635.27,318.765C633.493,325.106 633.337,331.575 636.732,337.738C653.345,367.898 689.198,360.956 707.72,349.726C718.633,343.11 728.734,324.967 728.912,312.771C728.931,311.487 729.841,310.389 731.099,310.132C731.099,310.132 751.107,306.055 751.107,306.055C762.178,303.8 775.381,301.111 783.904,299.381C783.904,299.381 927.633,269.713 930.233,269.017C931.258,268.742 932.35,269.086 933.033,269.898C933.033,269.898 933.501,270.455 933.499,270.453C942.992,281.716 954.109,293.391 968.988,296.853C991.864,302.177 1016.06,290.042 1016.3,264.956C1016.41,254.006 1012.4,245.297 1003.42,238.993C1003.21,238.848 993.756,233.748 991.853,232.643C990.403,231.802 990.208,230.614 990.195,230.535C990.031,229.594 990.365,228.073 991.638,226.485C994.129,223.382 1000.9,218.483 1001.49,217.852C1005.06,214.027 1007.06,210.417 1007.62,206.706C1008.47,201.02 1005.95,195.252 1001.24,188.444C987.294,168.245 961.992,158.457 942.51,173.485C931.566,181.927 923.923,193.871 917.233,205.558C915.725,208.193 914.415,210.939 913.105,213.678C912.587,214.761 911.432,215.366 910.271,215.207Z" style="fill:white;"/>
            </g>
            <g transform="matrix(1,0,0,1,-562.107,-3.37446)">
                <rect x="814.876" y="251.272" width="13.496" height="40.362" style="fill:none;"/>
            </g>
        </g>
    </g>
</svg>
