<?xml version="1.0" encoding="UTF-8" standalone="no"?>
<!DOCTYPE svg PUBLIC "-//W3C//DTD SVG 1.1//EN" "http://www.w3.org/Graphics/SVG/1.1/DTD/svg11.dtd">
<svg width="100%" height="100%" viewBox="0 0 512 512" version="1.1" xmlns="http://www.w3.org/2000/svg" xmlns:xlink="http://www.w3.org/1999/xlink" xml:space="preserve" xmlns:serif="http://www.serif.com/" style="fill-rule:evenodd;clip-rule:evenodd;stroke-linejoin:round;stroke-miterlimit:2;">
    <g transform="matrix(1,0,0,1,-1950.4,-9.95568)">
        <g id="Spade" transform="matrix(1,0,0,1,1950.4,9.95568)">
            <rect x="0" y="0" width="512" height="512" style="fill:none;"/>
            <g transform="matrix(1,0,0,1,-1717.15,-853.051)">
                <path d="M1962.03,990.096L1959.92,990.096C1950.94,990.096 1942.33,986.529 1935.98,980.18C1929.63,973.831 1926.06,965.22 1926.06,956.241L1926.06,911.922L2020.24,911.922C2020.24,911.922 2020.24,935.12 2020.24,956.241C2020.24,965.22 2016.67,973.831 2010.32,980.18C2003.97,986.529 1995.36,990.096 1986.38,990.096L1984.27,990.096L1984.27,1167.53L2040.67,1167.53L2040.67,1264.17C2040.67,1287.37 2021.86,1306.18 1998.65,1306.18L1947.64,1306.18C1924.44,1306.18 1905.63,1287.37 1905.63,1264.17L1905.63,1167.53L1962.03,1167.53L1962.03,990.096ZM2003.57,928.589L1942.73,928.589L1942.73,956.241C1942.73,960.8 1944.54,965.172 1947.76,968.395C1950.99,971.618 1955.36,973.429 1959.92,973.429C1968.52,973.429 1977.77,973.429 1986.38,973.429C1990.94,973.429 1995.31,971.618 1998.54,968.395C2001.76,965.172 2003.57,960.8 2003.57,956.241L2003.57,928.589Z" style="fill:rgb(157,157,157);"/>
            </g>
        </g>
    </g>
</svg>
